<svg width="560" height="160" viewBox="0 0 560 160" xmlns="http://www.w3.org/2000/svg" role="img" aria-label="EvalX AI Logo">
  <defs>
    <linearGradient id="grad" x1="0%" y1="0%" x2="100%" y2="100%">
      <stop offset="0%" stop-color="#2563eb"/>
      <stop offset="100%" stop-color="#7c3aed"/>
    </linearGradient>
  </defs>
  <rect width="560" height="160" fill="none"/>
  <g transform="translate(0,16)">
    <rect x="0" y="0" width="128" height="128" rx="24" fill="url(#grad)"/>
    <path d="M42 32h40a6 6 0 0 1 0 12H54v12h20a6 6 0 0 1 0 12H54v12h28a6 6 0 0 1 0 12H42a6 6 0 0 1-6-6V38a6 6 0 0 1 6-6z" fill="#fff"/>
    <path d="M90 72l10 10-10 10-10-10 10-10z" fill="#06b6d4"/>
  </g>
  <g font-family="Ubuntu, system-ui, Arial, sans-serif" font-weight="700" font-size="64" fill="#0f172a" transform="translate(152,34)">
    <text y="52">Eval</text>
    <text x="180" y="52" fill="url(#grad)">X</text>
    <text x="236" y="52"> AI</text>
  </g>
</svg>









