<svg width="128" height="128" viewBox="0 0 128 128" xmlns="http://www.w3.org/2000/svg" role="img" aria-label="EvalX AI Icon">
  <defs>
    <linearGradient id="g" x1="0%" y1="0%" x2="100%" y2="100%">
      <stop offset="0%" stop-color="#2563eb"/>
      <stop offset="100%" stop-color="#7c3aed"/>
    </linearGradient>
    <filter id="s" x="-20%" y="-20%" width="140%" height="140%">
      <feDropShadow dx="0" dy="6" stdDeviation="8" flood-color="#7c3aed" flood-opacity="0.25"/>
    </filter>
  </defs>
  <rect x="8" y="8" width="112" height="112" rx="24" fill="url(#g)"/>
  <g filter="url(#s)">
    <path d="M42 40h40a6 6 0 0 1 0 12H54v12h20a6 6 0 0 1 0 12H54v12h28a6 6 0 0 1 0 12H42a6 6 0 0 1-6-6V46a6 6 0 0 1 6-6z" fill="#fff"/>
    <path d="M90 80l10 10-10 10-10-10 10-10z" fill="#06b6d4"/>
  </g>
</svg>

